<svg xmlns="http://www.w3.org/2000/svg" id="Layer_1" data-name="Layer 1" viewBox="0 0 2000 228.84"><defs fill="#000000"><style>.cls-1,.cls-2{fill:#ffffff;}.cls-1{fill-rule:evenodd;}</style></defs><path class="cls-1" d="M0,228.84H51V114.5s.28-18,23.75-21.29V49.55S6.55,42.72,0,103Z" fill="#000000"/><path class="cls-1" d="M265.27,228.84h-51V114.5s-.27-18-23.74-21.29V49.55s68.23-6.83,74.78,53.48Z" fill="#000000"/><rect class="cls-2" x="86.24" y="49" width="91.42" height="44.76" fill="#000000"/><rect class="cls-2" x="103.37" y="113.91" width="58.33" height="114.77" fill="#000000"/><path class="cls-2" d="M401.52,182.83V108.07H373.61v-13h72.81v13H418.9v74.76Z" fill="#000000"/><path class="cls-2" d="M533.74,148.31v34.52H518.08V95.09h37.26c19.88-.63,32.86,9.51,33.06,26.61,0,8.57-3,15.21-9.17,19.8a30.11,30.11,0,0,1-10.9,5.23l20.45,36.1H572l-19.67-34.52Zm0-13h22.75c10.51,0,16-4.44,16.24-13.14-.19-9.36-5.73-14.12-16.24-14.12H533.74Z" fill="#000000"/><path class="cls-2" d="M739,182.83H722.18l-5.55-16H677.07l-5.35,16h-17l31.15-87.74h22ZM711.47,152l-14.91-43.55L682,152Z" fill="#000000"/><path class="cls-2" d="M782.93,95.09h16.82l25.61,74.44L850.2,95.09h17l-31.15,87.74h-22Z" fill="#000000"/><path class="cls-2" d="M953.38,95.09v87.74H937.72V95.09Z" fill="#000000"/><path class="cls-2" d="M1027.72,176.66l5.35-13.13a49.8,49.8,0,0,0,25.42,6.79c11.65,0,18.34-4,18.34-12.83,0-6.33-7.64-9.67-18.16-14.58-11.84-5.53-31-9.17-31-26.27,0-13.47,13-22.18,32.68-22.18,10.7,0,20.63,1.59,27.52,6l-4.4,13.29c-6.3-3.94-12.62-5.85-23.32-5.85-9,0-16.81,1.91-16.81,8.08,0,7.61,13.57,11.89,26.75,18.21,13,6.18,22.37,14.1,22.37,23.45,0,18.51-13.2,25.8-33.64,25.8C1047.4,183.46,1037.47,181.57,1027.72,176.66Z" fill="#000000"/><path class="cls-2" d="M1210.78,182.83l-29-64.13v64.13h-15.66V95.09h21.59l23.12,53.07,22.75-53.07h20.26v87.74h-15.68v-64Z" fill="#000000"/><path class="cls-2" d="M1405.5,182.83h-16.82l-5.54-16h-39.55l-5.36,16h-17l31.15-87.74h22ZM1378,152l-14.9-43.55L1348.56,152Z" fill="#000000"/><path class="cls-2" d="M1480.41,182.83V108.07h-27.9v-13h72.81v13H1497.8v74.76Z" fill="#000000"/><path class="cls-2" d="M1612.64,144.35v38.48H1597V95.09h15.66v36.27h40.72V95.09H1669v87.74h-15.66V144.35Z" fill="#000000"/><path class="cls-2" d="M1800.87,95.09v13h-40.71v23.29h25.43v13h-25.43v25.5h40.71v13H1744.5V95.09Z" fill="#000000"/><path class="cls-2" d="M1871.19,95.09H1888l19.69,74.29,19.11-74.29H1944l19.69,74.29,19.11-74.29H2000l-25.42,87.74h-22l-17-58.6-17,58.6h-22Z" fill="#000000"/></svg>