<?xml version="1.0" encoding="utf-8"?>
<!-- Generator: Adobe Illustrator 21.1.0, SVG Export Plug-In . SVG Version: 6.00 Build 0)  -->
<!DOCTYPE svg PUBLIC "-//W3C//DTD SVG 1.1//EN" "http://www.w3.org/Graphics/SVG/1.1/DTD/svg11.dtd">
<svg version="1.1" id="Layer_1" xmlns="http://www.w3.org/2000/svg" xmlns:xlink="http://www.w3.org/1999/xlink" x="0px" y="0px"
	 viewBox="0 0 2000 309" style="enable-background:new 0 0 2000 309;" xml:space="preserve">
<style type="text/css">
	.st0{fill-rule:evenodd;clip-rule:evenodd;fill:#ffffff;}
</style>
<g>
	<g>
		<g>
			<path class="st0" d="M0,260.5h60.2V125.6c0,0,0.2-21.3,27.9-25.2V48.8c0,0-80.4-8.1-88.2,63.1V260.5z"/>
			<path class="st0" d="M313.2,260.5h-60.5V125.6c0,0-0.1-21.3-28-25.2V48.8c0,0,80.6-8.1,88.5,63.1V260.5z"/>
			<rect x="101.8" y="48.3" class="st0" width="107.8" height="52.8"/>
			<rect x="122.1" y="124.9" class="st0" width="68.8" height="135.5"/>
		</g>
		<g>
			<path class="st0" d="M1518.5,198.1c7.4,9.9,10.5,24.2,8.4,43.4c9,12.8,35.4-5,39.3,4.4c-1.3,23.6-56.4,13.5-65,4.2
				c-16.9,9-40.9,11.4-56.5,0C1442.1,205.5,1472.2,193.9,1518.5,198.1z M1470.7,241.5c23.7,3.3,22.9-17.7,30.5-30.4
				C1478.3,208.5,1472,222.4,1470.7,241.5z"/>
			<path class="st0" d="M1761.3,16c33.1,54.9-9.8,118.6-34.8,156.2c43.6,2.7,99.2-6.9,117.1,21.7c-55.6-3.4-164.2-34.8-164.8,39
				c5.9,7,18.4-16,34.7-12.9c6.1,5.5,2.6,20.4,8.7,25.9c14.2,2.5,20.3-3.1,30.4-4.4c-6.2-21.3,25.9-62.9,52.1-39.1
				c3.1,22.1-4.7,32.8-13,43.5c18.8,8.2,37.4,8.2,56.3,0c9.8-4.6-19.3-19.6-4.4-30.3c23.6-6.2,12.5,22.3,30.5,21.6
				c21.6,4.4,15.1-19.5,30.3-21.6c18.4-1.4,22.1,12.4,30.4,21.6c6.6-18.9,40.7-30.1,65.1-17.2c0,1.4,0,2.7,0,4.1
				c-26.4,2.7-32,26-52.1,34.8c-19.5,3.4-19.5-12.4-30.3-17.4c-36.6,18.1-110,32.2-156.2,8.6c-42.6,7.5-71.5,0-104.1,0
				c-19.5,24.7-59.4,23.3-82.6,4.5c-6.2-17.5-13.7-44.7-4.3-65.2c-36.6-7.5-142.2-3.5-142.2-3.5s2.1,38.2,4,62.8
				c1.7,24.7,8.1,53.5,8.1,53.5s-13,0-17.3,0c-10-49.6-23.4-108.2-17.4-160.5c-33.7,43.6-53.6,135.3-117.2,134.5
				c-43.2-0.5-67.4-50.1-95.5-82.3c-18.9,30.9,18.2,91.6-12.9,108.3c-1.4,0-2.8,0-4.2,0c-13.9-31-7.1-82.3-8.7-125.9
				c-1.1-18.8-26.4-32.8,0-43.2c25.1,14.8,37.7,38.4,60.6,65c16.4,19,43.7,57.2,69.4,56.5c45.1-1.5,85-112.4,99.8-147.6
				c7.4-17.1,12.4-46.3,34.9-47.8c3.9,23.9-3,110.4-3,110.4s95.6,0.8,145.8,2.6c11.7-20.3,6.4-57.6,34.8-61c8.1,17.2-7.9,43.1-13,61
				c19-3,49.1,5.5,60.8-4.5c-3-59.5,18.3-132,65-156.2C1722.3,11.5,1747.1-2.2,1761.3,16z M1678.9,172.2
				c28.5,3.1,49.9-31.1,60.7-56.6c12-26.9,26.4-74.3-4.2-91.1C1690.1,47.3,1681.3,106.4,1678.9,172.2z M1605.2,254.6
				c24.3,4.1,34.6-5.9,47.7-13.1c-7.5-16.6-0.5-39.6,4.4-56.4c-21.5,0-43.3,0-65.2,0C1588.9,215.7,1586.4,238,1605.2,254.6z
				 M1674.7,189.4C1689.1,202.5,1687.8,173.3,1674.7,189.4L1674.7,189.4z M1782.9,228.4c-1.9-8.2,13.4-18.6-4.4-17.3
				C1779.5,217.6,1777.1,227.1,1782.9,228.4z"/>
			<path class="st0" d="M1050,107c-6.2,6.4-28.3,6.4-34.8,0C1011,65.6,1056.3,64.4,1050,107z"/>
			<path class="st0" d="M429.8,176.3c0-4.1,0-8.6,0-12.8c41.4,2.7,109.9,13.4,173.4,8.7c13.4-18.6,7.4-56.3,34.7-61
				c9,16.7-9.1,38.7-8.7,61c56.2,3.2,126.4-4.6,182.1,0c21,1.4,53.7,0.5,60.8,21.7c-72.8-12.7-162.5-8-247.3-8.8
				c-8.2,18.8-7.3,61.2,8.8,69.5c15.8,1.3,28.4-0.8,39.2-4.5c15.4-10.8-3.7-40.7,21.4-47.7c4.7,23.5,24.1,10.2,35,21.7
				c3.7,15.8-7.9,23.1,0,30.5c-1.1,13,26.4,4.1,12.9,17.2c-0.2,12.6-24.4,10.3-30.5,4.4c-11.5-4.2,5.7-37.5-12.9-34.7
				c-21.3,12.2-33.1,33.2-60.7,30.3c-34.7-3.4-51.8-43.4-39-86.7C544.1,190.6,474.6,193.1,429.8,176.3z"/>
			<path class="st0" d="M1115.1,172.2c11.9,13.3,3.7,21.3,4.4,43.3c12.9,16.3,36.9,20.8,34.6,43.4c-2.6,27.3-45.1,42.4-56.4,4.3
				c15.4-8.4,15.7,5.6,34.7,4.4c4.4-21.7-17.5-17.2-21.6-30.5c-30.5,33.7-108.2,19.7-134.5-8.7c-26.9,8-24.7,44.8-69.4,34.8
				c-8.7-18.9-21.3-33.6-47.7-34.8c0-15.7,12.8-19,30.3-17.3c8.4,7.6,15.7,16.3,17.4,30.4c20.8-0.9,18.6-24.8,34.6-30.4
				c41.2,18.4,41.4-19.5,73.8-21.7c-22.2,49.1,39.2,68.1,73.7,47.7C1075.6,212.1,1075.8,168.6,1115.1,172.2z"/>
			<path class="st0" d="M833.1,202.4c-2.7,34.4,21.7,50.5,47.7,43.5c-4.1,22.6-58,14-69.5,4.2c-18.1,10.4-42.5,10-56.3-4.2
				C753.8,206.2,795.2,188.6,833.1,202.4z M785.4,241.5c21.4,2.5,18.5-19.1,25.9-30.4C789.6,208,782.8,220.2,785.4,241.5z"/>
		</g>
		<rect x="366.2" class="st0" width="9" height="308.7"/>
	</g>
</g>
</svg>
